# Blender 4.0.2
# www.blender.org
mtllib cucina_vegana_coffee_cup.mtl
o Cup
v 0.000000 -0.526860 -0.178324
v 0.000000 -0.170212 -0.157628
v 0.126094 -0.526860 -0.126094
v 0.111460 -0.170212 -0.111460
v 0.178324 -0.526860 0.000000
v 0.157628 -0.170212 0.000000
v 0.126094 -0.526860 0.126094
v 0.111460 -0.170212 0.111460
v 0.000000 -0.526860 0.178324
v 0.000000 -0.170212 0.157628
v -0.126094 -0.526860 0.126094
v -0.111460 -0.170212 0.111460
v -0.178324 -0.526860 0.000000
v -0.157628 -0.170212 0.000000
v -0.126094 -0.526860 -0.126094
v -0.111460 -0.170212 -0.111460
v 0.126094 -0.170212 -0.126094
v 0.000000 -0.170212 -0.178324
v 0.178324 -0.170212 0.000000
v 0.126094 -0.170212 0.126094
v 0.000000 -0.170212 0.178324
v -0.126094 -0.170212 0.126094
v -0.178324 -0.170212 0.000000
v -0.126094 -0.170212 -0.126094
v 0.111460 -0.500080 -0.111460
v 0.000000 -0.500080 -0.157628
v 0.157628 -0.500080 0.000000
v 0.111460 -0.500080 0.111460
v 0.000000 -0.500080 0.157628
v -0.111460 -0.500080 0.111460
v -0.157628 -0.500080 0.000000
v -0.111460 -0.500080 -0.111460
v 0.000000 -0.158514 -0.178324
v 0.000000 0.198134 -0.178324
v 0.126094 -0.158514 -0.126094
v 0.126094 0.198134 -0.126094
v 0.178324 -0.158514 0.000000
v 0.178324 0.198134 0.000000
v 0.126094 -0.158514 0.126094
v 0.126094 0.198134 0.126094
v 0.000000 -0.158514 0.178324
v 0.000000 0.198134 0.178324
v -0.126094 -0.158514 0.126094
v -0.126094 0.198134 0.126094
v -0.178324 -0.158514 0.000000
v -0.178324 0.198134 0.000000
v -0.126094 -0.158514 -0.126094
v -0.126094 0.198134 -0.126094
vn -0.0000 -0.6303 -0.7764
vn -0.0000 0.6303 -0.7764
vn 0.5490 0.6303 -0.5490
vn 0.5490 -0.6303 -0.5490
vn 0.7764 0.6303 -0.0000
vn 0.7764 -0.6303 -0.0000
vn 0.5490 0.6303 0.5490
vn 0.5490 -0.6303 0.5490
vn -0.0000 0.6303 0.7764
vn -0.0000 -0.6303 0.7764
vn -0.5490 0.6303 0.5490
vn -0.5490 -0.6303 0.5490
vn -0.7764 0.6303 -0.0000
vn -0.7764 -0.6303 -0.0000
vn 0.5944 0.8042 -0.0000
vn 0.4203 0.8042 -0.4203
vn -0.5490 0.6303 -0.5490
vn -0.5490 -0.6303 -0.5490
vn -0.0000 0.8042 0.5944
vn -0.4203 0.8042 0.4203
vn -0.5944 0.8042 -0.0000
vn -0.4203 0.8042 -0.4203
vn -0.0000 0.8042 -0.5944
vn 0.4203 0.8042 0.4203
vt 1.000000 0.500000
vt 1.000000 1.000000
vt 0.875000 1.000000
vt 0.875000 0.500000
vt 0.750000 1.000000
vt 0.750000 0.500000
vt 0.625000 1.000000
vt 0.625000 0.500000
vt 0.500000 1.000000
vt 0.500000 0.500000
vt 0.375000 1.000000
vt 0.375000 0.500000
vt 0.250000 1.000000
vt 0.250000 0.500000
vt 0.037854 0.250000
vt 0.099990 0.099990
vt 0.125000 1.000000
vt 0.125000 0.500000
vt 0.000000 1.000000
vt 0.000000 0.500000
vt 0.750000 0.490000
vt 0.919706 0.419706
vt 0.990000 0.250000
vt 0.919706 0.080294
vt 0.750000 0.010000
vt 0.580294 0.080294
vt 0.510000 0.250000
vt 0.580294 0.419706
vt 0.250000 0.462146
vt 0.400010 0.400010
vt 0.419706 0.419706
vt 0.250000 0.490000
vt 0.462146 0.250000
vt 0.490000 0.250000
vt 0.400010 0.099990
vt 0.419706 0.080294
vt 0.250000 0.037854
vt 0.250000 0.010000
vt 0.080294 0.080294
vt 0.010000 0.250000
vt 0.099990 0.400010
vt 0.080294 0.419706
s 1
usemtl Porcelain_colored
f 1/1/1 18/2/2 17/3/3 3/4/4
f 3/4/4 17/3/3 19/5/5 5/6/6
f 5/6/6 19/5/5 20/7/7 7/8/8
f 7/8/8 20/7/7 21/9/9 9/10/10
f 9/10/10 21/9/9 22/11/11 11/12/12
f 11/12/12 22/11/11 23/13/13 13/14/14
f 14/15/15 12/16/16 30/16/3 31/15/5
f 13/14/14 23/13/13 24/17/17 15/18/18
f 15/18/18 24/17/17 18/19/2 1/20/1
f 1/21/1 3/22/4 5/23/6 7/24/8 9/25/10 11/26/12 13/27/14 15/28/18
f 2/29/19 4/30/20 17/31/3 18/32/2
f 4/30/20 6/33/21 19/34/5 17/31/3
f 6/33/21 8/35/22 20/36/7 19/34/5
f 8/35/22 10/37/23 21/38/9 20/36/7
f 10/37/23 12/16/16 22/39/11 21/38/9
f 12/16/16 14/15/15 23/40/13 22/39/11
f 14/15/15 16/41/24 24/42/17 23/40/13
f 16/41/24 2/29/19 18/32/2 24/42/17
f 25/30/11 26/29/9 32/41/7 31/15/5 30/16/3 29/37/2 28/35/17 27/33/13
f 10/37/23 8/35/22 28/35/17 29/37/2
f 6/33/21 4/30/20 25/30/11 27/33/13
f 16/41/24 14/15/15 31/15/5 32/41/7
f 12/16/16 10/37/23 29/37/2 30/16/3
f 8/35/22 6/33/21 27/33/13 28/35/17
f 4/30/20 2/29/19 26/29/9 25/30/11
f 2/29/19 16/41/24 32/41/7 26/29/9
o Coffee
v 0.000000 -0.498545 -0.151789
v 0.000000 -0.251393 -0.151789
v 0.107331 -0.498545 -0.107331
v 0.107331 -0.251393 -0.107331
v 0.151789 -0.498545 0.000000
v 0.151789 -0.251393 0.000000
v 0.107331 -0.498545 0.107331
v 0.107331 -0.251393 0.107331
v 0.000000 -0.498545 0.151789
v 0.000000 -0.251393 0.151789
v -0.107331 -0.498545 0.107331
v -0.107331 -0.251393 0.107331
v -0.151789 -0.498545 0.000000
v -0.151789 -0.251393 0.000000
v -0.107331 -0.498545 -0.107331
v -0.107331 -0.251393 -0.107331
vn -0.0000 -0.6303 -0.7764
vn -0.0000 0.6303 -0.7764
vn 0.5490 0.6303 -0.5490
vn 0.5490 -0.6303 -0.5490
vn 0.7764 0.6303 -0.0000
vn 0.7764 -0.6303 -0.0000
vn 0.5490 0.6303 0.5490
vn 0.5490 -0.6303 0.5490
vn -0.0000 0.6303 0.7764
vn -0.0000 -0.6303 0.7764
vn -0.5490 0.6303 0.5490
vn -0.5490 -0.6303 0.5490
vn -0.7764 0.6303 -0.0000
vn -0.7764 -0.6303 -0.0000
vn -0.5490 0.6303 -0.5490
vn -0.5490 -0.6303 -0.5490
vt 1.000000 0.500000
vt 1.000000 1.000000
vt 0.875000 1.000000
vt 0.875000 0.500000
vt 0.750000 1.000000
vt 0.750000 0.500000
vt 0.625000 1.000000
vt 0.625000 0.500000
vt 0.500000 1.000000
vt 0.500000 0.500000
vt 0.375000 1.000000
vt 0.375000 0.500000
vt 0.250000 1.000000
vt 0.250000 0.500000
vt 0.419706 0.419706
vt 0.250000 0.490000
vt 0.080294 0.419706
vt 0.010000 0.250000
vt 0.080294 0.080294
vt 0.250000 0.010000
vt 0.419706 0.080294
vt 0.490000 0.250000
vt 0.125000 1.000000
vt 0.125000 0.500000
vt 0.000000 1.000000
vt 0.000000 0.500000
vt 0.750000 0.490000
vt 0.919706 0.419706
vt 0.990000 0.250000
vt 0.919706 0.080294
vt 0.750000 0.010000
vt 0.580294 0.080294
vt 0.510000 0.250000
vt 0.580294 0.419706
s 1
usemtl Coffee
f 49/43/25 50/44/26 52/45/27 51/46/28
f 51/46/28 52/45/27 54/47/29 53/48/30
f 53/48/30 54/47/29 56/49/31 55/50/32
f 55/50/32 56/49/31 58/51/33 57/52/34
f 57/52/34 58/51/33 60/53/35 59/54/36
f 59/54/36 60/53/35 62/55/37 61/56/38
f 52/57/27 50/58/26 64/59/39 62/60/37 60/61/35 58/62/33 56/63/31 54/64/29
f 61/56/38 62/55/37 64/65/39 63/66/40
f 63/66/40 64/65/39 50/67/26 49/68/25
f 49/69/25 51/70/28 53/71/30 55/72/32 57/73/34 59/74/36 61/75/38 63/76/40
o Handle
v -0.075385 -0.473982 -0.141747
v -0.055466 -0.461437 -0.150427
v -0.055466 -0.436348 -0.150427
v -0.075385 -0.423803 -0.141747
v -0.095304 -0.436348 -0.133068
v -0.095304 -0.461437 -0.133068
v -0.110819 -0.437239 -0.223066
v -0.087357 -0.428369 -0.223614
v -0.080270 -0.410628 -0.207350
v -0.096646 -0.401758 -0.190539
v -0.120108 -0.410628 -0.189991
v -0.127195 -0.428369 -0.206255
v -0.125497 -0.348536 -0.256749
v -0.100567 -0.348536 -0.253929
v -0.090544 -0.348536 -0.230928
v -0.105452 -0.348536 -0.210749
v -0.130382 -0.348536 -0.213569
v -0.140405 -0.348536 -0.236570
v -0.110819 -0.259832 -0.223066
v -0.087357 -0.268702 -0.223614
v -0.080270 -0.286443 -0.207350
v -0.096646 -0.295313 -0.190539
v -0.120108 -0.286443 -0.189991
v -0.127195 -0.268702 -0.206255
v -0.075385 -0.223090 -0.141747
v -0.055466 -0.235634 -0.150427
v -0.055466 -0.260724 -0.150427
v -0.075385 -0.273268 -0.141747
v -0.095304 -0.260724 -0.133068
v -0.095304 -0.235634 -0.133068
v -0.039950 -0.259832 -0.060428
v -0.023575 -0.268702 -0.077240
v -0.030662 -0.286443 -0.093504
v -0.054124 -0.295313 -0.092956
v -0.070500 -0.286443 -0.076144
v -0.063413 -0.268702 -0.059881
v -0.025273 -0.348536 -0.026745
v -0.010365 -0.348536 -0.046925
v -0.020387 -0.348536 -0.069925
v -0.045318 -0.348536 -0.072746
v -0.060225 -0.348536 -0.052566
v -0.050203 -0.348536 -0.029566
v -0.039950 -0.437239 -0.060428
v -0.023575 -0.428369 -0.077240
v -0.030662 -0.410628 -0.093504
v -0.054124 -0.401758 -0.092956
v -0.070500 -0.410628 -0.076144
v -0.063413 -0.428369 -0.059881
vn 0.1837 -0.8880 0.4216
vn -0.2825 -0.7071 -0.6482
vn 0.5810 -0.4116 -0.7021
vn 0.8445 -0.4976 0.1980
vn 0.9538 0.2794 -0.1108
vn 0.8932 0.2937 0.3406
vn 0.2825 0.7071 0.6482
vn 0.3006 0.6585 0.6899
vn -0.7305 0.2794 0.6231
vn -0.3586 0.2937 0.8861
vn -0.9099 -0.4116 -0.0525
vn -0.4299 -0.4976 0.7534
vn -0.3995 -0.0000 -0.9167
vn 0.5129 -0.0000 -0.8584
vn 1.0000 -0.0000 -0.0047
vn 0.3995 -0.0000 0.9167
vn -0.6843 -0.0000 0.7292
vn -0.9780 -0.0000 -0.2088
vn -0.2825 0.7071 -0.6482
vn 0.5810 0.4116 -0.7021
vn 0.9538 -0.2794 -0.1108
vn 0.2825 -0.7071 0.6482
vn -0.7305 -0.2794 0.6231
vn -0.9099 0.4116 -0.0525
vn 0.1837 0.8880 0.4216
vn 0.8445 0.4976 0.1980
vn 0.8932 -0.2937 0.3406
vn 0.3006 -0.6585 0.6899
vn -0.3586 -0.2937 0.8861
vn -0.4299 0.4976 0.7534
vt 0.500000 0.500000
vt 0.625000 0.500000
vt 0.625000 0.666667
vt 0.500000 0.666667
vt 0.625000 0.833333
vt 0.500000 0.833333
vt 0.625000 1.000000
vt 0.500000 1.000000
vt 0.500000 -0.000000
vt 0.625000 -0.000000
vt 0.625000 0.166667
vt 0.500000 0.166667
vt 0.625000 0.333333
vt 0.500000 0.333333
vt 0.750000 0.500000
vt 0.750000 0.666667
vt 0.750000 0.833333
vt 0.750000 1.000000
vt 0.750000 -0.000000
vt 0.750000 0.166667
vt 0.750000 0.333333
vt 0.875000 0.500000
vt 0.875000 0.666667
vt 0.875000 0.833333
vt 0.875000 1.000000
vt 0.875000 -0.000000
vt 0.875000 0.166667
vt 0.875000 0.333333
vt 1.000000 0.500000
vt 1.000000 0.666667
vt 1.000000 0.833333
vt 1.000000 1.000000
vt 1.000000 -0.000000
vt 1.000000 0.166667
vt 1.000000 0.333333
s 1
usemtl Porcelain_colored
f 65/77/41 71/78/42 72/79/43 66/80/44
f 66/80/44 72/79/43 73/81/45 67/82/46
f 67/82/46 73/81/45 74/83/47 68/84/48
f 68/85/48 74/86/47 75/87/49 69/88/50
f 69/88/50 75/87/49 76/89/51 70/90/52
f 70/90/52 76/89/51 71/78/42 65/77/41
f 71/78/42 77/91/53 78/92/54 72/79/43
f 72/79/43 78/92/54 79/93/55 73/81/45
f 73/81/45 79/93/55 80/94/56 74/83/47
f 74/86/47 80/95/56 81/96/57 75/87/49
f 75/87/49 81/96/57 82/97/58 76/89/51
f 76/89/51 82/97/58 77/91/53 71/78/42
f 77/91/53 83/98/59 84/99/60 78/92/54
f 78/92/54 84/99/60 85/100/61 79/93/55
f 79/93/55 85/100/61 86/101/62 80/94/56
f 80/95/56 86/102/62 87/103/63 81/96/57
f 81/96/57 87/103/63 88/104/64 82/97/58
f 82/97/58 88/104/64 83/98/59 77/91/53
f 83/98/59 89/105/65 90/106/66 84/99/60
f 84/99/60 90/106/66 91/107/67 85/100/61
f 85/100/61 91/107/67 92/108/68 86/101/62
f 86/102/62 92/109/68 93/110/69 87/103/63
f 87/103/63 93/110/69 94/111/70 88/104/64
f 88/104/64 94/111/70 89/105/65 83/98/59
f 92/109/68 91/107/67 90/106/66 89/105/65 94/111/70 93/110/69
f 65/77/41 66/80/44 67/82/46 68/85/48 69/88/50 70/90/52
